Coordinates
version=1
nRows=102
nColumns=4
inDegrees=yes

Units are S.I. units (second, meters, Newtons, ...)
Angles are in degrees.

endheader
time	Hip_Angle	Knee_Angle	Ankle_Angle
      3.20833333	    130.44114579	    -75.11322482	    -39.16196639
      3.21666667	    130.41534289	    -75.12379278	    -39.23163362
      3.22500000	    130.38706122	    -75.10838147	    -39.28683803
      3.23333333	    130.35862860	    -75.09961732	    -39.35031572
      3.24166667	    130.27070867	    -75.11499648	    -39.42686855
      3.25000000	    130.20684851	    -75.10865981	    -39.49109825
      3.25833333	    130.15039736	    -75.09374365	    -39.55105674
      3.26666667	    130.12354134	    -75.06416204	    -39.61021630
      3.27500000	    129.96926665	    -75.06824033	    -39.67678397
      3.28333333	    129.90572502	    -75.07266156	    -39.74771003
      3.29166667	    129.85201633	    -75.08080852	    -39.82286266
      3.30000000	    129.89812609	    -75.08336031	    -39.90303709
      3.30833333	    129.86365665	    -75.09969228	    -39.97961195
      3.31666667	    129.87138873	    -75.09542779	    -40.05305460
      3.32500000	    129.83674262	    -75.09909071	    -40.12809120
      3.33333333	    129.81002306	    -75.09569546	    -40.20084162
      3.34166667	    129.78012850	    -75.09210418	    -40.27546726
      3.35000000	    129.68946816	    -75.10789213	    -40.36045822
      3.35833333	    129.67618414	    -75.05383334	    -40.41117576
      3.36666667	    129.64211377	    -75.02958125	    -40.47865088
      3.37500000	    129.58935738	    -75.00203532	    -40.54397003
      3.38333333	    129.55264606	    -74.97522880	    -40.60456879
      3.39166667	    129.54166265	    -74.94666918	    -40.66750622
      3.40000000	    129.43747538	    -74.95385348	    -40.74110659
      3.40833333	    129.42959828	    -74.94925404	    -40.81828205
      3.41666667	    129.48968864	    -74.93670590	    -40.89799491
      3.42500000	    129.50533777	    -74.92939563	    -40.97343503
      3.43333333	    129.48143445	    -74.92634599	    -41.04849062
      3.44166667	    129.44848632	    -74.92007368	    -41.12326440
      3.45000000	    129.47404130	    -74.88167943	    -41.18353045
      3.45833333	    129.30262648	    -74.90028483	    -41.26475192
      3.46666667	    129.37690183	    -74.84459085	    -41.33367290
      3.47500000	    129.36000487	    -74.78388957	    -41.37699604
      3.48333333	    129.33801654	    -74.74584670	    -41.43727996
      3.49166667	    129.30876983	    -74.71699924	    -41.50094340
      3.50000000	    129.31427155	    -74.68901977	    -41.56461283
      3.50833333	    129.30967487	    -74.65487583	    -41.62770305
      3.51666667	    129.31770891	    -74.62687934	    -41.69292047
      3.52500000	    129.29818848	    -74.62480900	    -41.76433577
      3.53333333	    129.31067692	    -74.61346283	    -41.83191908
      3.54166667	    129.32248737	    -74.60076588	    -41.89927686
      3.55000000	    129.30689116	    -74.59019692	    -41.96401240
      3.55833333	    129.30366489	    -74.56280646	    -42.02368928
      3.56666667	    129.28480175	    -74.53643733	    -42.08786301
      3.57500000	    129.24847490	    -74.51283515	    -42.14860534
      3.58333333	    129.23959687	    -74.47334672	    -42.20000202
      3.59166667	    129.13274862	    -74.44440538	    -42.25248708
      3.60000000	    129.11429577	    -74.41903666	    -42.30940988
      3.60833333	    129.07012255	    -74.40580822	    -42.37241197
      3.61666667	    129.11006517	    -74.37974833	    -42.43492601
      3.62500000	    129.08208281	    -74.37400860	    -42.50141660
      3.63333333	    129.03275080	    -74.39166361	    -42.57208763
      3.64166667	    128.93422240	    -74.45141911	    -42.66135171
      3.65000000	    128.96022151	    -74.42282126	    -42.71298729
      3.65833333	    128.95793705	    -74.41495717	    -42.77389015
      3.66666667	    128.94478007	    -74.39390733	    -42.82343657
      3.67500000	    128.85184167	    -74.42727100	    -42.90140203
      3.68333333	    128.79229597	    -74.41757082	    -42.95933249
      3.69166667	    128.68804239	    -74.43213609	    -43.02854212
      3.70000000	    128.68564235	    -74.37824227	    -43.06225920
      3.70833333	    128.56351090	    -74.38326708	    -43.11591711
      3.71666667	    128.61050575	    -74.35684071	    -43.16649439
      3.72500000	    128.57397035	    -74.34998232	    -43.22324312
      3.73333333	    128.45913784	    -74.37410469	    -43.28444900
      3.74166667	    128.52640370	    -74.36361757	    -43.34760684
      3.75000000	    128.49381100	    -74.37923433	    -43.41256743
      3.75833333	    128.45805385	    -74.40063948	    -43.47856096
      3.76666667	    128.43155314	    -74.40817141	    -43.53964616
      3.77500000	    128.36927877	    -74.44156245	    -43.61338318
      3.78333333	    128.32882702	    -74.43564352	    -43.66638181
      3.79166667	    128.31891806	    -74.39402871	    -43.70498189
      3.80000000	    128.28273814	    -74.36952291	    -43.75120156
      3.80833333	    128.23092822	    -74.35419192	    -43.80088500
      3.81666667	    128.11855390	    -74.32658052	    -43.84575562
      3.82500000	    128.05448607	    -74.33526117	    -43.90246211
      3.83333333	    128.01337547	    -74.33401444	    -43.95625406
      3.84166667	    127.97115457	    -74.34257805	    -44.01674248
      3.85000000	    128.03426210	    -74.33423258	    -44.07614816
      3.85833333	    127.99275010	    -74.35824629	    -44.14352402
      3.86666667	    127.92336564	    -74.40271893	    -44.22011169
      3.87500000	    127.88363786	    -74.41912002	    -44.28289654
      3.88333333	    127.87072203	    -74.39726474	    -44.33747504
      3.89166667	    127.85169937	    -74.38327389	    -44.38316547
      3.90000000	    127.82764722	    -74.36293544	    -44.43048099
      3.90833333	    127.79347072	    -74.34565293	    -44.47716016
      3.91666667	    127.74322823	    -74.32702462	    -44.52398024
      3.92500000	    127.69184651	    -74.31469479	    -44.57229611
      3.93333333	    127.60448534	    -74.31398369	    -44.62144821
      3.94166667	    127.56473825	    -74.31405242	    -44.67357062
      3.95000000	    127.64717413	    -74.27698316	    -44.71859224
      3.95833333	    127.53585547	    -74.30035378	    -44.78267856
      3.96666667	    127.55578601	    -74.32343255	    -44.85429019
      3.97500000	    127.49682840	    -74.35225318	    -44.91845767
      3.98333333	    127.49574214	    -74.33555840	    -44.96283139
      3.99166667	    127.47827573	    -74.33800415	    -45.02276316
      4.00000000	    127.31700465	    -74.37031128	    -45.08555210
      4.00833333	    127.30868987	    -74.33752414	    -45.12674147
      4.01666667	    127.37258261	    -74.30589447	    -45.17150592
      4.02500000	    127.32451663	    -74.29321247	    -45.21754904
      4.03333333	    127.28439594	    -74.27471919	    -45.26129022
      4.04166667	    127.17934036	    -74.27692941	    -45.31018328
      4.05000000	    127.16812198	    -74.26070159	    -45.35353191
